<mxfile host="Electron" modified="2024-01-21T15:46:08.451Z" agent="Mozilla/5.0 (Windows NT 10.0; Win64; x64) AppleWebKit/537.36 (KHTML, like Gecko) draw.io/22.1.21 Chrome/120.0.6099.109 Electron/28.1.0 Safari/537.36" etag="35Of-MYdgwJGR5rts8AK" version="22.1.21" type="device">
  <diagram name="第 1 页" id="grC8lWl0Z1mmLSzup0CA">
    <mxGraphModel dx="1050" dy="669" grid="1" gridSize="10" guides="1" tooltips="1" connect="1" arrows="1" fold="1" page="1" pageScale="1" pageWidth="827" pageHeight="1169" math="0" shadow="0">
      <root>
        <mxCell id="0" />
        <mxCell id="1" parent="0" />
        <mxCell id="xFAXYU-9wEt1Gt8IzHtF-286" value="" style="rounded=0;whiteSpace=wrap;html=1;fillColor=#f5f5f5;strokeColor=#666666;fontColor=#333333;" vertex="1" parent="1">
          <mxGeometry x="150" y="1500" width="750" height="780" as="geometry" />
        </mxCell>
        <mxCell id="O0UAzECPqOc6WiOpqxmu-10" value="" style="ellipse;shape=cloud;whiteSpace=wrap;html=1;fillColor=#C9FEF9;" parent="1" vertex="1">
          <mxGeometry x="160" y="499.25" width="340" height="170" as="geometry" />
        </mxCell>
        <mxCell id="O0UAzECPqOc6WiOpqxmu-7" value="" style="ellipse;shape=cloud;whiteSpace=wrap;html=1;fillColor=#C9FEF9;" parent="1" vertex="1">
          <mxGeometry x="710" y="499.25" width="340" height="170" as="geometry" />
        </mxCell>
        <mxCell id="Kvu8l0vkT6Yvd5MmJpUO-1" value="" style="ellipse;shape=cloud;whiteSpace=wrap;html=1;fillColor=#C9FEF9;" parent="1" vertex="1">
          <mxGeometry x="297" y="610" width="543" height="250" as="geometry" />
        </mxCell>
        <mxCell id="-sjPPocclRjLpnaKTFyE-72" value="" style="group" parent="1" vertex="1" connectable="0">
          <mxGeometry x="310" y="360" width="80" height="140" as="geometry" />
        </mxCell>
        <mxCell id="-sjPPocclRjLpnaKTFyE-67" value="Application" style="rounded=0;whiteSpace=wrap;html=1;" parent="-sjPPocclRjLpnaKTFyE-72" vertex="1">
          <mxGeometry width="80" height="28" as="geometry" />
        </mxCell>
        <mxCell id="-sjPPocclRjLpnaKTFyE-68" value="Translator" style="rounded=0;whiteSpace=wrap;html=1;" parent="-sjPPocclRjLpnaKTFyE-72" vertex="1">
          <mxGeometry y="28" width="80" height="28" as="geometry" />
        </mxCell>
        <mxCell id="-sjPPocclRjLpnaKTFyE-69" value="NetWork" style="rounded=0;whiteSpace=wrap;html=1;" parent="-sjPPocclRjLpnaKTFyE-72" vertex="1">
          <mxGeometry y="56" width="80" height="28" as="geometry" />
        </mxCell>
        <mxCell id="-sjPPocclRjLpnaKTFyE-70" value="Link" style="rounded=0;whiteSpace=wrap;html=1;" parent="-sjPPocclRjLpnaKTFyE-72" vertex="1">
          <mxGeometry y="84" width="80" height="28" as="geometry" />
        </mxCell>
        <mxCell id="-sjPPocclRjLpnaKTFyE-71" value="Physical" style="rounded=0;whiteSpace=wrap;html=1;" parent="-sjPPocclRjLpnaKTFyE-72" vertex="1">
          <mxGeometry y="112" width="80" height="28" as="geometry" />
        </mxCell>
        <mxCell id="-sjPPocclRjLpnaKTFyE-77" value="" style="image;html=1;image=img/lib/clip_art/networking/Wireless_Router_N_128x128.png" parent="1" vertex="1">
          <mxGeometry x="827" y="545" width="80" height="80" as="geometry" />
        </mxCell>
        <mxCell id="-sjPPocclRjLpnaKTFyE-78" value="" style="verticalLabelPosition=bottom;sketch=0;aspect=fixed;html=1;verticalAlign=top;strokeColor=none;align=center;outlineConnect=0;shape=mxgraph.citrix.router;" parent="1" vertex="1">
          <mxGeometry x="330" y="566" width="55" height="36.5" as="geometry" />
        </mxCell>
        <mxCell id="-sjPPocclRjLpnaKTFyE-79" value="" style="verticalLabelPosition=bottom;sketch=0;aspect=fixed;html=1;verticalAlign=top;strokeColor=none;align=center;outlineConnect=0;shape=mxgraph.citrix.router;" parent="1" vertex="1">
          <mxGeometry x="465" y="710" width="55" height="36.5" as="geometry" />
        </mxCell>
        <mxCell id="-sjPPocclRjLpnaKTFyE-81" value="" style="fontColor=#0066CC;verticalAlign=top;verticalLabelPosition=bottom;labelPosition=center;align=center;html=1;outlineConnect=0;fillColor=#CCCCCC;strokeColor=#6881B3;gradientColor=none;gradientDirection=north;strokeWidth=2;shape=mxgraph.networks.mobile;" parent="1" vertex="1">
          <mxGeometry x="910" y="380" width="50" height="100" as="geometry" />
        </mxCell>
        <mxCell id="-sjPPocclRjLpnaKTFyE-82" value="" style="fontColor=#0066CC;verticalAlign=top;verticalLabelPosition=bottom;labelPosition=center;align=center;html=1;outlineConnect=0;fillColor=#CCCCCC;strokeColor=#6881B3;gradientColor=none;gradientDirection=north;strokeWidth=2;shape=mxgraph.networks.server;" parent="1" vertex="1">
          <mxGeometry x="200" y="390" width="90" height="100" as="geometry" />
        </mxCell>
        <mxCell id="-sjPPocclRjLpnaKTFyE-83" value="" style="group" parent="1" vertex="1" connectable="0">
          <mxGeometry x="790" y="360" width="80" height="140" as="geometry" />
        </mxCell>
        <mxCell id="-sjPPocclRjLpnaKTFyE-84" value="Application" style="rounded=0;whiteSpace=wrap;html=1;" parent="-sjPPocclRjLpnaKTFyE-83" vertex="1">
          <mxGeometry width="80" height="28" as="geometry" />
        </mxCell>
        <mxCell id="-sjPPocclRjLpnaKTFyE-85" value="Translator" style="rounded=0;whiteSpace=wrap;html=1;" parent="-sjPPocclRjLpnaKTFyE-83" vertex="1">
          <mxGeometry y="28" width="80" height="28" as="geometry" />
        </mxCell>
        <mxCell id="-sjPPocclRjLpnaKTFyE-86" value="NetWork" style="rounded=0;whiteSpace=wrap;html=1;" parent="-sjPPocclRjLpnaKTFyE-83" vertex="1">
          <mxGeometry y="56" width="80" height="28" as="geometry" />
        </mxCell>
        <mxCell id="-sjPPocclRjLpnaKTFyE-87" value="Link" style="rounded=0;whiteSpace=wrap;html=1;" parent="-sjPPocclRjLpnaKTFyE-83" vertex="1">
          <mxGeometry y="84" width="80" height="28" as="geometry" />
        </mxCell>
        <mxCell id="-sjPPocclRjLpnaKTFyE-88" value="Physical" style="rounded=0;whiteSpace=wrap;html=1;" parent="-sjPPocclRjLpnaKTFyE-83" vertex="1">
          <mxGeometry y="112" width="80" height="28" as="geometry" />
        </mxCell>
        <mxCell id="Kvu8l0vkT6Yvd5MmJpUO-5" value="" style="endArrow=none;html=1;rounded=0;entryX=0.5;entryY=1;entryDx=0;entryDy=0;entryPerimeter=0;" parent="1" source="-sjPPocclRjLpnaKTFyE-78" target="-sjPPocclRjLpnaKTFyE-82" edge="1">
          <mxGeometry width="50" height="50" relative="1" as="geometry">
            <mxPoint x="570" y="660" as="sourcePoint" />
            <mxPoint x="620" y="610" as="targetPoint" />
          </mxGeometry>
        </mxCell>
        <mxCell id="Kvu8l0vkT6Yvd5MmJpUO-10" value="" style="endArrow=classic;startArrow=classic;html=1;rounded=0;entryX=0;entryY=0.5;entryDx=0;entryDy=0;exitX=1;exitY=0.5;exitDx=0;exitDy=0;strokeWidth=3;shadow=1;" parent="1" source="-sjPPocclRjLpnaKTFyE-68" target="-sjPPocclRjLpnaKTFyE-85" edge="1">
          <mxGeometry width="50" height="50" relative="1" as="geometry">
            <mxPoint x="390" y="410" as="sourcePoint" />
            <mxPoint x="620" y="610" as="targetPoint" />
          </mxGeometry>
        </mxCell>
        <mxCell id="Kvu8l0vkT6Yvd5MmJpUO-11" value="Logic end-to-end transport" style="text;html=1;strokeColor=none;fillColor=none;align=center;verticalAlign=middle;whiteSpace=wrap;rounded=0;strokeWidth=1;fontSize=15;" parent="1" vertex="1">
          <mxGeometry x="520" y="370" width="180" height="30" as="geometry" />
        </mxCell>
        <mxCell id="O0UAzECPqOc6WiOpqxmu-1" value="" style="html=1;verticalLabelPosition=bottom;align=center;labelBackgroundColor=#ffffff;verticalAlign=top;strokeWidth=2;strokeColor=#0080F0;shadow=0;dashed=0;shape=mxgraph.ios7.icons.wifi;pointerEvents=1" parent="1" vertex="1">
          <mxGeometry x="840.3" y="530" width="29.7" height="21" as="geometry" />
        </mxCell>
        <mxCell id="O0UAzECPqOc6WiOpqxmu-2" value="" style="endArrow=none;html=1;rounded=0;entryX=0.25;entryY=1;entryDx=0;entryDy=0;" parent="1" source="O0UAzECPqOc6WiOpqxmu-3" target="-sjPPocclRjLpnaKTFyE-77" edge="1">
          <mxGeometry width="50" height="50" relative="1" as="geometry">
            <mxPoint x="346" y="576" as="sourcePoint" />
            <mxPoint x="255" y="500" as="targetPoint" />
          </mxGeometry>
        </mxCell>
        <mxCell id="O0UAzECPqOc6WiOpqxmu-3" value="" style="verticalLabelPosition=bottom;sketch=0;aspect=fixed;html=1;verticalAlign=top;strokeColor=none;align=center;outlineConnect=0;shape=mxgraph.citrix.router;" parent="1" vertex="1">
          <mxGeometry x="630" y="720" width="55" height="36.5" as="geometry" />
        </mxCell>
        <mxCell id="O0UAzECPqOc6WiOpqxmu-4" value="" style="endArrow=none;html=1;rounded=0;entryX=0.25;entryY=1;entryDx=0;entryDy=0;" parent="1" source="-sjPPocclRjLpnaKTFyE-79" edge="1">
          <mxGeometry width="50" height="50" relative="1" as="geometry">
            <mxPoint x="465" y="837" as="sourcePoint" />
            <mxPoint x="627" y="740" as="targetPoint" />
          </mxGeometry>
        </mxCell>
        <mxCell id="O0UAzECPqOc6WiOpqxmu-5" value="" style="endArrow=none;html=1;rounded=0;entryX=0.25;entryY=1;entryDx=0;entryDy=0;exitX=0.909;exitY=0.932;exitDx=0;exitDy=0;exitPerimeter=0;" parent="1" source="-sjPPocclRjLpnaKTFyE-78" edge="1">
          <mxGeometry width="50" height="50" relative="1" as="geometry">
            <mxPoint x="358" y="706.55" as="sourcePoint" />
            <mxPoint x="465" y="715.55" as="targetPoint" />
          </mxGeometry>
        </mxCell>
        <mxCell id="O0UAzECPqOc6WiOpqxmu-6" value="ISP" style="text;html=1;strokeColor=none;fillColor=none;align=center;verticalAlign=middle;whiteSpace=wrap;rounded=0;" parent="1" vertex="1">
          <mxGeometry x="510" y="780" width="90" height="40" as="geometry" />
        </mxCell>
        <mxCell id="O0UAzECPqOc6WiOpqxmu-8" value="Home Network" style="text;html=1;strokeColor=none;fillColor=none;align=center;verticalAlign=middle;whiteSpace=wrap;rounded=0;" parent="1" vertex="1">
          <mxGeometry x="920" y="585" width="90" height="40" as="geometry" />
        </mxCell>
        <mxCell id="O0UAzECPqOc6WiOpqxmu-9" value="Enterprise Network" style="text;html=1;strokeColor=none;fillColor=none;align=center;verticalAlign=middle;whiteSpace=wrap;rounded=0;" parent="1" vertex="1">
          <mxGeometry x="210" y="570" width="100" height="40" as="geometry" />
        </mxCell>
        <mxCell id="xFAXYU-9wEt1Gt8IzHtF-1" value="Source port #" style="rounded=0;whiteSpace=wrap;html=1;fontStyle=1" vertex="1" parent="1">
          <mxGeometry x="415" y="1082" width="140" height="40" as="geometry" />
        </mxCell>
        <mxCell id="xFAXYU-9wEt1Gt8IzHtF-2" value="Dest. port #" style="rounded=0;whiteSpace=wrap;html=1;fontStyle=1" vertex="1" parent="1">
          <mxGeometry x="555" y="1082" width="140" height="40" as="geometry" />
        </mxCell>
        <mxCell id="xFAXYU-9wEt1Gt8IzHtF-5" value="Application data (message)" style="rounded=0;whiteSpace=wrap;html=1;" vertex="1" parent="1">
          <mxGeometry x="415" y="1162" width="280" height="90" as="geometry" />
        </mxCell>
        <mxCell id="xFAXYU-9wEt1Gt8IzHtF-6" value="UDP" style="text;html=1;strokeColor=none;fillColor=none;align=center;verticalAlign=middle;whiteSpace=wrap;rounded=0;fontFamily=Comic Sans MS;" vertex="1" parent="1">
          <mxGeometry x="525" y="1262" width="60" height="30" as="geometry" />
        </mxCell>
        <mxCell id="xFAXYU-9wEt1Gt8IzHtF-8" value="" style="shape=curlyBracket;whiteSpace=wrap;html=1;rounded=1;flipH=1;labelPosition=right;verticalLabelPosition=middle;align=left;verticalAlign=middle;direction=south;" vertex="1" parent="1">
          <mxGeometry x="415" y="1052" width="280" height="20" as="geometry" />
        </mxCell>
        <mxCell id="xFAXYU-9wEt1Gt8IzHtF-9" value="32 bits" style="text;html=1;align=center;verticalAlign=middle;resizable=0;points=[];autosize=1;strokeColor=none;fillColor=none;" vertex="1" parent="1">
          <mxGeometry x="525" y="1020" width="60" height="30" as="geometry" />
        </mxCell>
        <mxCell id="xFAXYU-9wEt1Gt8IzHtF-10" value="Length" style="rounded=0;whiteSpace=wrap;html=1;" vertex="1" parent="1">
          <mxGeometry x="415" y="1122" width="140" height="40" as="geometry" />
        </mxCell>
        <mxCell id="xFAXYU-9wEt1Gt8IzHtF-11" value="Checksum" style="rounded=0;whiteSpace=wrap;html=1;" vertex="1" parent="1">
          <mxGeometry x="555" y="1122" width="140" height="40" as="geometry" />
        </mxCell>
        <mxCell id="xFAXYU-9wEt1Gt8IzHtF-12" value="0" style="whiteSpace=wrap;html=1;aspect=fixed;" vertex="1" parent="1">
          <mxGeometry x="240" y="1720" width="30" height="30" as="geometry" />
        </mxCell>
        <mxCell id="xFAXYU-9wEt1Gt8IzHtF-13" value="1" style="whiteSpace=wrap;html=1;aspect=fixed;" vertex="1" parent="1">
          <mxGeometry x="270" y="1720" width="30" height="30" as="geometry" />
        </mxCell>
        <mxCell id="xFAXYU-9wEt1Gt8IzHtF-14" value="1" style="whiteSpace=wrap;html=1;aspect=fixed;" vertex="1" parent="1">
          <mxGeometry x="300" y="1720" width="30" height="30" as="geometry" />
        </mxCell>
        <mxCell id="xFAXYU-9wEt1Gt8IzHtF-15" value="0" style="whiteSpace=wrap;html=1;aspect=fixed;" vertex="1" parent="1">
          <mxGeometry x="330" y="1720" width="30" height="30" as="geometry" />
        </mxCell>
        <mxCell id="xFAXYU-9wEt1Gt8IzHtF-16" value="0" style="whiteSpace=wrap;html=1;aspect=fixed;" vertex="1" parent="1">
          <mxGeometry x="360" y="1720" width="30" height="30" as="geometry" />
        </mxCell>
        <mxCell id="xFAXYU-9wEt1Gt8IzHtF-17" value="1" style="whiteSpace=wrap;html=1;aspect=fixed;" vertex="1" parent="1">
          <mxGeometry x="390" y="1720" width="30" height="30" as="geometry" />
        </mxCell>
        <mxCell id="xFAXYU-9wEt1Gt8IzHtF-18" value="1" style="whiteSpace=wrap;html=1;aspect=fixed;" vertex="1" parent="1">
          <mxGeometry x="420" y="1720" width="30" height="30" as="geometry" />
        </mxCell>
        <mxCell id="xFAXYU-9wEt1Gt8IzHtF-19" value="0" style="whiteSpace=wrap;html=1;aspect=fixed;" vertex="1" parent="1">
          <mxGeometry x="450" y="1720" width="30" height="30" as="geometry" />
        </mxCell>
        <mxCell id="xFAXYU-9wEt1Gt8IzHtF-20" value="0" style="whiteSpace=wrap;html=1;aspect=fixed;" vertex="1" parent="1">
          <mxGeometry x="480" y="1720" width="30" height="30" as="geometry" />
        </mxCell>
        <mxCell id="xFAXYU-9wEt1Gt8IzHtF-21" value="1" style="whiteSpace=wrap;html=1;aspect=fixed;" vertex="1" parent="1">
          <mxGeometry x="510" y="1720" width="30" height="30" as="geometry" />
        </mxCell>
        <mxCell id="xFAXYU-9wEt1Gt8IzHtF-22" value="1" style="whiteSpace=wrap;html=1;aspect=fixed;" vertex="1" parent="1">
          <mxGeometry x="540" y="1720" width="30" height="30" as="geometry" />
        </mxCell>
        <mxCell id="xFAXYU-9wEt1Gt8IzHtF-23" value="0" style="whiteSpace=wrap;html=1;aspect=fixed;" vertex="1" parent="1">
          <mxGeometry x="570" y="1720" width="30" height="30" as="geometry" />
        </mxCell>
        <mxCell id="xFAXYU-9wEt1Gt8IzHtF-24" value="0" style="whiteSpace=wrap;html=1;aspect=fixed;" vertex="1" parent="1">
          <mxGeometry x="600" y="1720" width="30" height="30" as="geometry" />
        </mxCell>
        <mxCell id="xFAXYU-9wEt1Gt8IzHtF-25" value="0" style="whiteSpace=wrap;html=1;aspect=fixed;" vertex="1" parent="1">
          <mxGeometry x="630" y="1720" width="30" height="30" as="geometry" />
        </mxCell>
        <mxCell id="xFAXYU-9wEt1Gt8IzHtF-26" value="0" style="whiteSpace=wrap;html=1;aspect=fixed;" vertex="1" parent="1">
          <mxGeometry x="660" y="1720" width="30" height="30" as="geometry" />
        </mxCell>
        <mxCell id="xFAXYU-9wEt1Gt8IzHtF-27" value="0" style="whiteSpace=wrap;html=1;aspect=fixed;" vertex="1" parent="1">
          <mxGeometry x="690" y="1720" width="30" height="30" as="geometry" />
        </mxCell>
        <mxCell id="xFAXYU-9wEt1Gt8IzHtF-28" value="" style="endArrow=none;dashed=1;html=1;dashPattern=1 3;strokeWidth=2;rounded=0;" edge="1" parent="1">
          <mxGeometry width="50" height="50" relative="1" as="geometry">
            <mxPoint x="482" y="1880" as="sourcePoint" />
            <mxPoint x="480" y="1680" as="targetPoint" />
          </mxGeometry>
        </mxCell>
        <mxCell id="xFAXYU-9wEt1Gt8IzHtF-30" value="0" style="whiteSpace=wrap;html=1;aspect=fixed;" vertex="1" parent="1">
          <mxGeometry x="240" y="1770" width="30" height="30" as="geometry" />
        </mxCell>
        <mxCell id="xFAXYU-9wEt1Gt8IzHtF-31" value="1" style="whiteSpace=wrap;html=1;aspect=fixed;" vertex="1" parent="1">
          <mxGeometry x="270" y="1770" width="30" height="30" as="geometry" />
        </mxCell>
        <mxCell id="xFAXYU-9wEt1Gt8IzHtF-32" value="0" style="whiteSpace=wrap;html=1;aspect=fixed;" vertex="1" parent="1">
          <mxGeometry x="300" y="1770" width="30" height="30" as="geometry" />
        </mxCell>
        <mxCell id="xFAXYU-9wEt1Gt8IzHtF-33" value="1" style="whiteSpace=wrap;html=1;aspect=fixed;" vertex="1" parent="1">
          <mxGeometry x="330" y="1770" width="30" height="30" as="geometry" />
        </mxCell>
        <mxCell id="xFAXYU-9wEt1Gt8IzHtF-34" value="0" style="whiteSpace=wrap;html=1;aspect=fixed;" vertex="1" parent="1">
          <mxGeometry x="360" y="1770" width="30" height="30" as="geometry" />
        </mxCell>
        <mxCell id="xFAXYU-9wEt1Gt8IzHtF-35" value="1" style="whiteSpace=wrap;html=1;aspect=fixed;" vertex="1" parent="1">
          <mxGeometry x="390" y="1770" width="30" height="30" as="geometry" />
        </mxCell>
        <mxCell id="xFAXYU-9wEt1Gt8IzHtF-36" value="0" style="whiteSpace=wrap;html=1;aspect=fixed;" vertex="1" parent="1">
          <mxGeometry x="420" y="1770" width="30" height="30" as="geometry" />
        </mxCell>
        <mxCell id="xFAXYU-9wEt1Gt8IzHtF-37" value="1" style="whiteSpace=wrap;html=1;aspect=fixed;" vertex="1" parent="1">
          <mxGeometry x="450" y="1770" width="30" height="30" as="geometry" />
        </mxCell>
        <mxCell id="xFAXYU-9wEt1Gt8IzHtF-47" value="0" style="whiteSpace=wrap;html=1;aspect=fixed;" vertex="1" parent="1">
          <mxGeometry x="480" y="1770" width="30" height="30" as="geometry" />
        </mxCell>
        <mxCell id="xFAXYU-9wEt1Gt8IzHtF-48" value="1" style="whiteSpace=wrap;html=1;aspect=fixed;" vertex="1" parent="1">
          <mxGeometry x="510" y="1770" width="30" height="30" as="geometry" />
        </mxCell>
        <mxCell id="xFAXYU-9wEt1Gt8IzHtF-49" value="0" style="whiteSpace=wrap;html=1;aspect=fixed;" vertex="1" parent="1">
          <mxGeometry x="540" y="1770" width="30" height="30" as="geometry" />
        </mxCell>
        <mxCell id="xFAXYU-9wEt1Gt8IzHtF-50" value="1" style="whiteSpace=wrap;html=1;aspect=fixed;" vertex="1" parent="1">
          <mxGeometry x="570" y="1770" width="30" height="30" as="geometry" />
        </mxCell>
        <mxCell id="xFAXYU-9wEt1Gt8IzHtF-51" value="0" style="whiteSpace=wrap;html=1;aspect=fixed;" vertex="1" parent="1">
          <mxGeometry x="600" y="1770" width="30" height="30" as="geometry" />
        </mxCell>
        <mxCell id="xFAXYU-9wEt1Gt8IzHtF-52" value="1" style="whiteSpace=wrap;html=1;aspect=fixed;" vertex="1" parent="1">
          <mxGeometry x="630" y="1770" width="30" height="30" as="geometry" />
        </mxCell>
        <mxCell id="xFAXYU-9wEt1Gt8IzHtF-53" value="0" style="whiteSpace=wrap;html=1;aspect=fixed;" vertex="1" parent="1">
          <mxGeometry x="660" y="1770" width="30" height="30" as="geometry" />
        </mxCell>
        <mxCell id="xFAXYU-9wEt1Gt8IzHtF-54" value="1" style="whiteSpace=wrap;html=1;aspect=fixed;" vertex="1" parent="1">
          <mxGeometry x="690" y="1770" width="30" height="30" as="geometry" />
        </mxCell>
        <mxCell id="xFAXYU-9wEt1Gt8IzHtF-55" value="" style="endArrow=none;html=1;rounded=0;" edge="1" parent="1">
          <mxGeometry width="50" height="50" relative="1" as="geometry">
            <mxPoint x="200" y="1810" as="sourcePoint" />
            <mxPoint x="800" y="1810" as="targetPoint" />
          </mxGeometry>
        </mxCell>
        <mxCell id="xFAXYU-9wEt1Gt8IzHtF-56" value="1" style="whiteSpace=wrap;html=1;aspect=fixed;" vertex="1" parent="1">
          <mxGeometry x="240" y="1820" width="30" height="30" as="geometry" />
        </mxCell>
        <mxCell id="xFAXYU-9wEt1Gt8IzHtF-57" value="0" style="whiteSpace=wrap;html=1;aspect=fixed;" vertex="1" parent="1">
          <mxGeometry x="270" y="1820" width="30" height="30" as="geometry" />
        </mxCell>
        <mxCell id="xFAXYU-9wEt1Gt8IzHtF-58" value="1" style="whiteSpace=wrap;html=1;aspect=fixed;" vertex="1" parent="1">
          <mxGeometry x="300" y="1820" width="30" height="30" as="geometry" />
        </mxCell>
        <mxCell id="xFAXYU-9wEt1Gt8IzHtF-59" value="1" style="whiteSpace=wrap;html=1;aspect=fixed;" vertex="1" parent="1">
          <mxGeometry x="330" y="1820" width="30" height="30" as="geometry" />
        </mxCell>
        <mxCell id="xFAXYU-9wEt1Gt8IzHtF-60" value="1" style="whiteSpace=wrap;html=1;aspect=fixed;" vertex="1" parent="1">
          <mxGeometry x="360" y="1820" width="30" height="30" as="geometry" />
        </mxCell>
        <mxCell id="xFAXYU-9wEt1Gt8IzHtF-61" value="0" style="whiteSpace=wrap;html=1;aspect=fixed;" vertex="1" parent="1">
          <mxGeometry x="390" y="1820" width="30" height="30" as="geometry" />
        </mxCell>
        <mxCell id="xFAXYU-9wEt1Gt8IzHtF-62" value="1" style="whiteSpace=wrap;html=1;aspect=fixed;" vertex="1" parent="1">
          <mxGeometry x="420" y="1820" width="30" height="30" as="geometry" />
        </mxCell>
        <mxCell id="xFAXYU-9wEt1Gt8IzHtF-63" value="1" style="whiteSpace=wrap;html=1;aspect=fixed;" vertex="1" parent="1">
          <mxGeometry x="450" y="1820" width="30" height="30" as="geometry" />
        </mxCell>
        <mxCell id="xFAXYU-9wEt1Gt8IzHtF-64" value="1" style="whiteSpace=wrap;html=1;aspect=fixed;" vertex="1" parent="1">
          <mxGeometry x="480" y="1820" width="30" height="30" as="geometry" />
        </mxCell>
        <mxCell id="xFAXYU-9wEt1Gt8IzHtF-65" value="0" style="whiteSpace=wrap;html=1;aspect=fixed;" vertex="1" parent="1">
          <mxGeometry x="510" y="1820" width="30" height="30" as="geometry" />
        </mxCell>
        <mxCell id="xFAXYU-9wEt1Gt8IzHtF-66" value="1" style="whiteSpace=wrap;html=1;aspect=fixed;" vertex="1" parent="1">
          <mxGeometry x="540" y="1820" width="30" height="30" as="geometry" />
        </mxCell>
        <mxCell id="xFAXYU-9wEt1Gt8IzHtF-67" value="1" style="whiteSpace=wrap;html=1;aspect=fixed;" vertex="1" parent="1">
          <mxGeometry x="570" y="1820" width="30" height="30" as="geometry" />
        </mxCell>
        <mxCell id="xFAXYU-9wEt1Gt8IzHtF-68" value="0" style="whiteSpace=wrap;html=1;aspect=fixed;" vertex="1" parent="1">
          <mxGeometry x="600" y="1820" width="30" height="30" as="geometry" />
        </mxCell>
        <mxCell id="xFAXYU-9wEt1Gt8IzHtF-69" value="1" style="whiteSpace=wrap;html=1;aspect=fixed;" vertex="1" parent="1">
          <mxGeometry x="630" y="1820" width="30" height="30" as="geometry" />
        </mxCell>
        <mxCell id="xFAXYU-9wEt1Gt8IzHtF-70" value="0" style="whiteSpace=wrap;html=1;aspect=fixed;" vertex="1" parent="1">
          <mxGeometry x="660" y="1820" width="30" height="30" as="geometry" />
        </mxCell>
        <mxCell id="xFAXYU-9wEt1Gt8IzHtF-71" value="1" style="whiteSpace=wrap;html=1;aspect=fixed;" vertex="1" parent="1">
          <mxGeometry x="690" y="1820" width="30" height="30" as="geometry" />
        </mxCell>
        <mxCell id="xFAXYU-9wEt1Gt8IzHtF-82" value="+" style="text;html=1;align=center;verticalAlign=middle;resizable=0;points=[];autosize=1;strokeColor=none;fillColor=none;fontSize=33;" vertex="1" parent="1">
          <mxGeometry x="755" y="1740" width="40" height="50" as="geometry" />
        </mxCell>
        <mxCell id="xFAXYU-9wEt1Gt8IzHtF-83" value="data1" style="text;html=1;align=center;verticalAlign=middle;resizable=0;points=[];autosize=1;strokeColor=none;fillColor=none;" vertex="1" parent="1">
          <mxGeometry x="750" y="1720" width="50" height="30" as="geometry" />
        </mxCell>
        <mxCell id="xFAXYU-9wEt1Gt8IzHtF-84" value="data2" style="text;html=1;align=center;verticalAlign=middle;resizable=0;points=[];autosize=1;strokeColor=none;fillColor=none;" vertex="1" parent="1">
          <mxGeometry x="750" y="1770" width="50" height="30" as="geometry" />
        </mxCell>
        <mxCell id="xFAXYU-9wEt1Gt8IzHtF-85" value="sum1" style="text;html=1;align=center;verticalAlign=middle;resizable=0;points=[];autosize=1;strokeColor=none;fillColor=none;" vertex="1" parent="1">
          <mxGeometry x="750" y="1820" width="50" height="30" as="geometry" />
        </mxCell>
        <mxCell id="xFAXYU-9wEt1Gt8IzHtF-102" value="" style="endArrow=none;dashed=1;html=1;dashPattern=1 3;strokeWidth=2;rounded=0;" edge="1" parent="1">
          <mxGeometry width="50" height="50" relative="1" as="geometry">
            <mxPoint x="485" y="2190" as="sourcePoint" />
            <mxPoint x="485" y="1900" as="targetPoint" />
          </mxGeometry>
        </mxCell>
        <mxCell id="xFAXYU-9wEt1Gt8IzHtF-103" value="1" style="whiteSpace=wrap;html=1;aspect=fixed;" vertex="1" parent="1">
          <mxGeometry x="245" y="1990" width="30" height="30" as="geometry" />
        </mxCell>
        <mxCell id="xFAXYU-9wEt1Gt8IzHtF-104" value="0" style="whiteSpace=wrap;html=1;aspect=fixed;" vertex="1" parent="1">
          <mxGeometry x="275" y="1990" width="30" height="30" as="geometry" />
        </mxCell>
        <mxCell id="xFAXYU-9wEt1Gt8IzHtF-105" value="0" style="whiteSpace=wrap;html=1;aspect=fixed;" vertex="1" parent="1">
          <mxGeometry x="305" y="1990" width="30" height="30" as="geometry" />
        </mxCell>
        <mxCell id="xFAXYU-9wEt1Gt8IzHtF-106" value="0" style="whiteSpace=wrap;html=1;aspect=fixed;" vertex="1" parent="1">
          <mxGeometry x="335" y="1990" width="30" height="30" as="geometry" />
        </mxCell>
        <mxCell id="xFAXYU-9wEt1Gt8IzHtF-107" value="1" style="whiteSpace=wrap;html=1;aspect=fixed;" vertex="1" parent="1">
          <mxGeometry x="365" y="1990" width="30" height="30" as="geometry" />
        </mxCell>
        <mxCell id="xFAXYU-9wEt1Gt8IzHtF-108" value="1" style="whiteSpace=wrap;html=1;aspect=fixed;" vertex="1" parent="1">
          <mxGeometry x="395" y="1990" width="30" height="30" as="geometry" />
        </mxCell>
        <mxCell id="xFAXYU-9wEt1Gt8IzHtF-109" value="1" style="whiteSpace=wrap;html=1;aspect=fixed;" vertex="1" parent="1">
          <mxGeometry x="425" y="1990" width="30" height="30" as="geometry" />
        </mxCell>
        <mxCell id="xFAXYU-9wEt1Gt8IzHtF-110" value="1" style="whiteSpace=wrap;html=1;aspect=fixed;" vertex="1" parent="1">
          <mxGeometry x="455" y="1990" width="30" height="30" as="geometry" />
        </mxCell>
        <mxCell id="xFAXYU-9wEt1Gt8IzHtF-111" value="0" style="whiteSpace=wrap;html=1;aspect=fixed;" vertex="1" parent="1">
          <mxGeometry x="485" y="1990" width="30" height="30" as="geometry" />
        </mxCell>
        <mxCell id="xFAXYU-9wEt1Gt8IzHtF-112" value="0" style="whiteSpace=wrap;html=1;aspect=fixed;" vertex="1" parent="1">
          <mxGeometry x="515" y="1990" width="30" height="30" as="geometry" />
        </mxCell>
        <mxCell id="xFAXYU-9wEt1Gt8IzHtF-113" value="0" style="whiteSpace=wrap;html=1;aspect=fixed;" vertex="1" parent="1">
          <mxGeometry x="545" y="1990" width="30" height="30" as="geometry" />
        </mxCell>
        <mxCell id="xFAXYU-9wEt1Gt8IzHtF-114" value="0" style="whiteSpace=wrap;html=1;aspect=fixed;" vertex="1" parent="1">
          <mxGeometry x="575" y="1990" width="30" height="30" as="geometry" />
        </mxCell>
        <mxCell id="xFAXYU-9wEt1Gt8IzHtF-115" value="1" style="whiteSpace=wrap;html=1;aspect=fixed;" vertex="1" parent="1">
          <mxGeometry x="605" y="1990" width="30" height="30" as="geometry" />
        </mxCell>
        <mxCell id="xFAXYU-9wEt1Gt8IzHtF-116" value="1" style="whiteSpace=wrap;html=1;aspect=fixed;" vertex="1" parent="1">
          <mxGeometry x="635" y="1990" width="30" height="30" as="geometry" />
        </mxCell>
        <mxCell id="xFAXYU-9wEt1Gt8IzHtF-117" value="0" style="whiteSpace=wrap;html=1;aspect=fixed;" vertex="1" parent="1">
          <mxGeometry x="665" y="1990" width="30" height="30" as="geometry" />
        </mxCell>
        <mxCell id="xFAXYU-9wEt1Gt8IzHtF-118" value="0" style="whiteSpace=wrap;html=1;aspect=fixed;" vertex="1" parent="1">
          <mxGeometry x="695" y="1990" width="30" height="30" as="geometry" />
        </mxCell>
        <mxCell id="xFAXYU-9wEt1Gt8IzHtF-119" value="" style="endArrow=none;html=1;rounded=0;" edge="1" parent="1">
          <mxGeometry width="50" height="50" relative="1" as="geometry">
            <mxPoint x="205" y="2030" as="sourcePoint" />
            <mxPoint x="805" y="2030" as="targetPoint" />
          </mxGeometry>
        </mxCell>
        <mxCell id="xFAXYU-9wEt1Gt8IzHtF-120" value="1" style="whiteSpace=wrap;html=1;aspect=fixed;" vertex="1" parent="1">
          <mxGeometry x="245" y="1950" width="30" height="30" as="geometry" />
        </mxCell>
        <mxCell id="xFAXYU-9wEt1Gt8IzHtF-121" value="0" style="whiteSpace=wrap;html=1;aspect=fixed;" vertex="1" parent="1">
          <mxGeometry x="275" y="1950" width="30" height="30" as="geometry" />
        </mxCell>
        <mxCell id="xFAXYU-9wEt1Gt8IzHtF-122" value="1" style="whiteSpace=wrap;html=1;aspect=fixed;" vertex="1" parent="1">
          <mxGeometry x="305" y="1950" width="30" height="30" as="geometry" />
        </mxCell>
        <mxCell id="xFAXYU-9wEt1Gt8IzHtF-123" value="1" style="whiteSpace=wrap;html=1;aspect=fixed;" vertex="1" parent="1">
          <mxGeometry x="335" y="1950" width="30" height="30" as="geometry" />
        </mxCell>
        <mxCell id="xFAXYU-9wEt1Gt8IzHtF-124" value="1" style="whiteSpace=wrap;html=1;aspect=fixed;" vertex="1" parent="1">
          <mxGeometry x="365" y="1950" width="30" height="30" as="geometry" />
        </mxCell>
        <mxCell id="xFAXYU-9wEt1Gt8IzHtF-125" value="0" style="whiteSpace=wrap;html=1;aspect=fixed;" vertex="1" parent="1">
          <mxGeometry x="395" y="1950" width="30" height="30" as="geometry" />
        </mxCell>
        <mxCell id="xFAXYU-9wEt1Gt8IzHtF-126" value="1" style="whiteSpace=wrap;html=1;aspect=fixed;" vertex="1" parent="1">
          <mxGeometry x="425" y="1950" width="30" height="30" as="geometry" />
        </mxCell>
        <mxCell id="xFAXYU-9wEt1Gt8IzHtF-127" value="1" style="whiteSpace=wrap;html=1;aspect=fixed;" vertex="1" parent="1">
          <mxGeometry x="455" y="1950" width="30" height="30" as="geometry" />
        </mxCell>
        <mxCell id="xFAXYU-9wEt1Gt8IzHtF-128" value="1" style="whiteSpace=wrap;html=1;aspect=fixed;" vertex="1" parent="1">
          <mxGeometry x="485" y="1950" width="30" height="30" as="geometry" />
        </mxCell>
        <mxCell id="xFAXYU-9wEt1Gt8IzHtF-129" value="0" style="whiteSpace=wrap;html=1;aspect=fixed;" vertex="1" parent="1">
          <mxGeometry x="515" y="1950" width="30" height="30" as="geometry" />
        </mxCell>
        <mxCell id="xFAXYU-9wEt1Gt8IzHtF-130" value="1" style="whiteSpace=wrap;html=1;aspect=fixed;" vertex="1" parent="1">
          <mxGeometry x="545" y="1950" width="30" height="30" as="geometry" />
        </mxCell>
        <mxCell id="xFAXYU-9wEt1Gt8IzHtF-131" value="1" style="whiteSpace=wrap;html=1;aspect=fixed;" vertex="1" parent="1">
          <mxGeometry x="575" y="1950" width="30" height="30" as="geometry" />
        </mxCell>
        <mxCell id="xFAXYU-9wEt1Gt8IzHtF-132" value="0" style="whiteSpace=wrap;html=1;aspect=fixed;" vertex="1" parent="1">
          <mxGeometry x="605" y="1950" width="30" height="30" as="geometry" />
        </mxCell>
        <mxCell id="xFAXYU-9wEt1Gt8IzHtF-133" value="1" style="whiteSpace=wrap;html=1;aspect=fixed;" vertex="1" parent="1">
          <mxGeometry x="635" y="1950" width="30" height="30" as="geometry" />
        </mxCell>
        <mxCell id="xFAXYU-9wEt1Gt8IzHtF-134" value="0" style="whiteSpace=wrap;html=1;aspect=fixed;" vertex="1" parent="1">
          <mxGeometry x="665" y="1950" width="30" height="30" as="geometry" />
        </mxCell>
        <mxCell id="xFAXYU-9wEt1Gt8IzHtF-135" value="1" style="whiteSpace=wrap;html=1;aspect=fixed;" vertex="1" parent="1">
          <mxGeometry x="695" y="1950" width="30" height="30" as="geometry" />
        </mxCell>
        <mxCell id="xFAXYU-9wEt1Gt8IzHtF-136" value="+" style="text;html=1;align=center;verticalAlign=middle;resizable=0;points=[];autosize=1;strokeColor=none;fillColor=none;fontSize=33;" vertex="1" parent="1">
          <mxGeometry x="760" y="1960" width="40" height="50" as="geometry" />
        </mxCell>
        <mxCell id="xFAXYU-9wEt1Gt8IzHtF-137" value="sum2" style="text;html=1;align=center;verticalAlign=middle;resizable=0;points=[];autosize=1;strokeColor=none;fillColor=none;" vertex="1" parent="1">
          <mxGeometry x="755" y="2120" width="50" height="30" as="geometry" />
        </mxCell>
        <mxCell id="xFAXYU-9wEt1Gt8IzHtF-138" value="data3" style="text;html=1;align=center;verticalAlign=middle;resizable=0;points=[];autosize=1;strokeColor=none;fillColor=none;" vertex="1" parent="1">
          <mxGeometry x="755" y="1990" width="50" height="30" as="geometry" />
        </mxCell>
        <mxCell id="xFAXYU-9wEt1Gt8IzHtF-139" value="sum1" style="text;html=1;align=center;verticalAlign=middle;resizable=0;points=[];autosize=1;strokeColor=none;fillColor=none;" vertex="1" parent="1">
          <mxGeometry x="755" y="1950" width="50" height="30" as="geometry" />
        </mxCell>
        <mxCell id="xFAXYU-9wEt1Gt8IzHtF-86" value="0" style="whiteSpace=wrap;html=1;aspect=fixed;" vertex="1" parent="1">
          <mxGeometry x="245" y="2040" width="30" height="30" as="geometry" />
        </mxCell>
        <mxCell id="xFAXYU-9wEt1Gt8IzHtF-87" value="1" style="whiteSpace=wrap;html=1;aspect=fixed;" vertex="1" parent="1">
          <mxGeometry x="275" y="2040" width="30" height="30" as="geometry" />
        </mxCell>
        <mxCell id="xFAXYU-9wEt1Gt8IzHtF-88" value="0" style="whiteSpace=wrap;html=1;aspect=fixed;" vertex="1" parent="1">
          <mxGeometry x="305" y="2040" width="30" height="30" as="geometry" />
        </mxCell>
        <mxCell id="xFAXYU-9wEt1Gt8IzHtF-89" value="0" style="whiteSpace=wrap;html=1;aspect=fixed;" vertex="1" parent="1">
          <mxGeometry x="335" y="2040" width="30" height="30" as="geometry" />
        </mxCell>
        <mxCell id="xFAXYU-9wEt1Gt8IzHtF-90" value="1" style="whiteSpace=wrap;html=1;aspect=fixed;" vertex="1" parent="1">
          <mxGeometry x="365" y="2040" width="30" height="30" as="geometry" />
        </mxCell>
        <mxCell id="xFAXYU-9wEt1Gt8IzHtF-91" value="0" style="whiteSpace=wrap;html=1;aspect=fixed;" vertex="1" parent="1">
          <mxGeometry x="395" y="2040" width="30" height="30" as="geometry" />
        </mxCell>
        <mxCell id="xFAXYU-9wEt1Gt8IzHtF-92" value="1" style="whiteSpace=wrap;html=1;aspect=fixed;" vertex="1" parent="1">
          <mxGeometry x="425" y="2040" width="30" height="30" as="geometry" />
        </mxCell>
        <mxCell id="xFAXYU-9wEt1Gt8IzHtF-93" value="0" style="whiteSpace=wrap;html=1;aspect=fixed;" vertex="1" parent="1">
          <mxGeometry x="455" y="2040" width="30" height="30" as="geometry" />
        </mxCell>
        <mxCell id="xFAXYU-9wEt1Gt8IzHtF-94" value="1" style="whiteSpace=wrap;html=1;aspect=fixed;" vertex="1" parent="1">
          <mxGeometry x="485" y="2040" width="30" height="30" as="geometry" />
        </mxCell>
        <mxCell id="xFAXYU-9wEt1Gt8IzHtF-95" value="1" style="whiteSpace=wrap;html=1;aspect=fixed;" vertex="1" parent="1">
          <mxGeometry x="515" y="2040" width="30" height="30" as="geometry" />
        </mxCell>
        <mxCell id="xFAXYU-9wEt1Gt8IzHtF-96" value="0" style="whiteSpace=wrap;html=1;aspect=fixed;" vertex="1" parent="1">
          <mxGeometry x="545" y="2040" width="30" height="30" as="geometry" />
        </mxCell>
        <mxCell id="xFAXYU-9wEt1Gt8IzHtF-97" value="0" style="whiteSpace=wrap;html=1;aspect=fixed;" vertex="1" parent="1">
          <mxGeometry x="575" y="2040" width="30" height="30" as="geometry" />
        </mxCell>
        <mxCell id="xFAXYU-9wEt1Gt8IzHtF-98" value="0" style="whiteSpace=wrap;html=1;aspect=fixed;" vertex="1" parent="1">
          <mxGeometry x="605" y="2040" width="30" height="30" as="geometry" />
        </mxCell>
        <mxCell id="xFAXYU-9wEt1Gt8IzHtF-99" value="0" style="whiteSpace=wrap;html=1;aspect=fixed;" vertex="1" parent="1">
          <mxGeometry x="635" y="2040" width="30" height="30" as="geometry" />
        </mxCell>
        <mxCell id="xFAXYU-9wEt1Gt8IzHtF-100" value="0" style="whiteSpace=wrap;html=1;aspect=fixed;" vertex="1" parent="1">
          <mxGeometry x="665" y="2040" width="30" height="30" as="geometry" />
        </mxCell>
        <mxCell id="xFAXYU-9wEt1Gt8IzHtF-101" value="1" style="whiteSpace=wrap;html=1;aspect=fixed;" vertex="1" parent="1">
          <mxGeometry x="695" y="2040" width="30" height="30" as="geometry" />
        </mxCell>
        <mxCell id="xFAXYU-9wEt1Gt8IzHtF-140" value="1" style="whiteSpace=wrap;html=1;aspect=fixed;labelBackgroundColor=none;fillColor=#dae8fc;strokeColor=#6c8ebf;" vertex="1" parent="1">
          <mxGeometry x="695" y="2080" width="30" height="30" as="geometry" />
        </mxCell>
        <mxCell id="xFAXYU-9wEt1Gt8IzHtF-192" value="溢出需要回卷" style="text;html=1;align=center;verticalAlign=middle;resizable=0;points=[];autosize=1;strokeColor=none;fillColor=none;" vertex="1" parent="1">
          <mxGeometry x="740" y="2040" width="100" height="30" as="geometry" />
        </mxCell>
        <mxCell id="xFAXYU-9wEt1Gt8IzHtF-193" value="0" style="whiteSpace=wrap;html=1;aspect=fixed;" vertex="1" parent="1">
          <mxGeometry x="245" y="2120" width="30" height="30" as="geometry" />
        </mxCell>
        <mxCell id="xFAXYU-9wEt1Gt8IzHtF-194" value="1" style="whiteSpace=wrap;html=1;aspect=fixed;" vertex="1" parent="1">
          <mxGeometry x="275" y="2120" width="30" height="30" as="geometry" />
        </mxCell>
        <mxCell id="xFAXYU-9wEt1Gt8IzHtF-195" value="0" style="whiteSpace=wrap;html=1;aspect=fixed;" vertex="1" parent="1">
          <mxGeometry x="305" y="2120" width="30" height="30" as="geometry" />
        </mxCell>
        <mxCell id="xFAXYU-9wEt1Gt8IzHtF-196" value="0" style="whiteSpace=wrap;html=1;aspect=fixed;" vertex="1" parent="1">
          <mxGeometry x="335" y="2120" width="30" height="30" as="geometry" />
        </mxCell>
        <mxCell id="xFAXYU-9wEt1Gt8IzHtF-197" value="0" style="whiteSpace=wrap;html=1;aspect=fixed;" vertex="1" parent="1">
          <mxGeometry x="365" y="2120" width="30" height="30" as="geometry" />
        </mxCell>
        <mxCell id="xFAXYU-9wEt1Gt8IzHtF-198" value="0" style="whiteSpace=wrap;html=1;aspect=fixed;" vertex="1" parent="1">
          <mxGeometry x="395" y="2120" width="30" height="30" as="geometry" />
        </mxCell>
        <mxCell id="xFAXYU-9wEt1Gt8IzHtF-199" value="1" style="whiteSpace=wrap;html=1;aspect=fixed;" vertex="1" parent="1">
          <mxGeometry x="425" y="2120" width="30" height="30" as="geometry" />
        </mxCell>
        <mxCell id="xFAXYU-9wEt1Gt8IzHtF-200" value="0" style="whiteSpace=wrap;html=1;aspect=fixed;" vertex="1" parent="1">
          <mxGeometry x="455" y="2120" width="30" height="30" as="geometry" />
        </mxCell>
        <mxCell id="xFAXYU-9wEt1Gt8IzHtF-201" value="1" style="whiteSpace=wrap;html=1;aspect=fixed;" vertex="1" parent="1">
          <mxGeometry x="485" y="2120" width="30" height="30" as="geometry" />
        </mxCell>
        <mxCell id="xFAXYU-9wEt1Gt8IzHtF-202" value="1" style="whiteSpace=wrap;html=1;aspect=fixed;" vertex="1" parent="1">
          <mxGeometry x="515" y="2120" width="30" height="30" as="geometry" />
        </mxCell>
        <mxCell id="xFAXYU-9wEt1Gt8IzHtF-203" value="0" style="whiteSpace=wrap;html=1;aspect=fixed;" vertex="1" parent="1">
          <mxGeometry x="545" y="2120" width="30" height="30" as="geometry" />
        </mxCell>
        <mxCell id="xFAXYU-9wEt1Gt8IzHtF-204" value="0" style="whiteSpace=wrap;html=1;aspect=fixed;" vertex="1" parent="1">
          <mxGeometry x="575" y="2120" width="30" height="30" as="geometry" />
        </mxCell>
        <mxCell id="xFAXYU-9wEt1Gt8IzHtF-205" value="0" style="whiteSpace=wrap;html=1;aspect=fixed;" vertex="1" parent="1">
          <mxGeometry x="605" y="2120" width="30" height="30" as="geometry" />
        </mxCell>
        <mxCell id="xFAXYU-9wEt1Gt8IzHtF-206" value="0" style="whiteSpace=wrap;html=1;aspect=fixed;" vertex="1" parent="1">
          <mxGeometry x="635" y="2120" width="30" height="30" as="geometry" />
        </mxCell>
        <mxCell id="xFAXYU-9wEt1Gt8IzHtF-207" value="1" style="whiteSpace=wrap;html=1;aspect=fixed;fillColor=#fff2cc;strokeColor=#d6b656;" vertex="1" parent="1">
          <mxGeometry x="665" y="2120" width="30" height="30" as="geometry" />
        </mxCell>
        <mxCell id="xFAXYU-9wEt1Gt8IzHtF-208" value="0" style="whiteSpace=wrap;html=1;aspect=fixed;fillColor=#fff2cc;strokeColor=#d6b656;" vertex="1" parent="1">
          <mxGeometry x="695" y="2120" width="30" height="30" as="geometry" />
        </mxCell>
        <mxCell id="xFAXYU-9wEt1Gt8IzHtF-211" value="checksum" style="text;html=1;align=center;verticalAlign=middle;resizable=0;points=[];autosize=1;strokeColor=none;fillColor=none;labelBorderColor=none;fontStyle=1;labelBackgroundColor=none;" vertex="1" parent="1">
          <mxGeometry x="735" y="2219" width="80" height="30" as="geometry" />
        </mxCell>
        <mxCell id="xFAXYU-9wEt1Gt8IzHtF-212" value="sum2取反" style="text;html=1;align=center;verticalAlign=middle;resizable=0;points=[];autosize=1;strokeColor=none;fillColor=none;" vertex="1" parent="1">
          <mxGeometry x="800" y="2219" width="80" height="30" as="geometry" />
        </mxCell>
        <mxCell id="xFAXYU-9wEt1Gt8IzHtF-213" value="1" style="whiteSpace=wrap;html=1;aspect=fixed;" vertex="1" parent="1">
          <mxGeometry x="245" y="2219" width="30" height="30" as="geometry" />
        </mxCell>
        <mxCell id="xFAXYU-9wEt1Gt8IzHtF-214" value="0" style="whiteSpace=wrap;html=1;aspect=fixed;" vertex="1" parent="1">
          <mxGeometry x="275" y="2219" width="30" height="30" as="geometry" />
        </mxCell>
        <mxCell id="xFAXYU-9wEt1Gt8IzHtF-215" value="1" style="whiteSpace=wrap;html=1;aspect=fixed;" vertex="1" parent="1">
          <mxGeometry x="305" y="2219" width="30" height="30" as="geometry" />
        </mxCell>
        <mxCell id="xFAXYU-9wEt1Gt8IzHtF-216" value="1" style="whiteSpace=wrap;html=1;aspect=fixed;" vertex="1" parent="1">
          <mxGeometry x="335" y="2219" width="30" height="30" as="geometry" />
        </mxCell>
        <mxCell id="xFAXYU-9wEt1Gt8IzHtF-217" value="1" style="whiteSpace=wrap;html=1;aspect=fixed;" vertex="1" parent="1">
          <mxGeometry x="365" y="2219" width="30" height="30" as="geometry" />
        </mxCell>
        <mxCell id="xFAXYU-9wEt1Gt8IzHtF-218" value="1" style="whiteSpace=wrap;html=1;aspect=fixed;" vertex="1" parent="1">
          <mxGeometry x="395" y="2219" width="30" height="30" as="geometry" />
        </mxCell>
        <mxCell id="xFAXYU-9wEt1Gt8IzHtF-219" value="0" style="whiteSpace=wrap;html=1;aspect=fixed;" vertex="1" parent="1">
          <mxGeometry x="425" y="2219" width="30" height="30" as="geometry" />
        </mxCell>
        <mxCell id="xFAXYU-9wEt1Gt8IzHtF-220" value="1" style="whiteSpace=wrap;html=1;aspect=fixed;" vertex="1" parent="1">
          <mxGeometry x="455" y="2219" width="30" height="30" as="geometry" />
        </mxCell>
        <mxCell id="xFAXYU-9wEt1Gt8IzHtF-221" value="0" style="whiteSpace=wrap;html=1;aspect=fixed;" vertex="1" parent="1">
          <mxGeometry x="485" y="2219" width="30" height="30" as="geometry" />
        </mxCell>
        <mxCell id="xFAXYU-9wEt1Gt8IzHtF-222" value="0" style="whiteSpace=wrap;html=1;aspect=fixed;" vertex="1" parent="1">
          <mxGeometry x="515" y="2219" width="30" height="30" as="geometry" />
        </mxCell>
        <mxCell id="xFAXYU-9wEt1Gt8IzHtF-223" value="1" style="whiteSpace=wrap;html=1;aspect=fixed;" vertex="1" parent="1">
          <mxGeometry x="545" y="2219" width="30" height="30" as="geometry" />
        </mxCell>
        <mxCell id="xFAXYU-9wEt1Gt8IzHtF-224" value="1" style="whiteSpace=wrap;html=1;aspect=fixed;" vertex="1" parent="1">
          <mxGeometry x="575" y="2219" width="30" height="30" as="geometry" />
        </mxCell>
        <mxCell id="xFAXYU-9wEt1Gt8IzHtF-225" value="1" style="whiteSpace=wrap;html=1;aspect=fixed;" vertex="1" parent="1">
          <mxGeometry x="605" y="2219" width="30" height="30" as="geometry" />
        </mxCell>
        <mxCell id="xFAXYU-9wEt1Gt8IzHtF-226" value="1" style="whiteSpace=wrap;html=1;aspect=fixed;" vertex="1" parent="1">
          <mxGeometry x="635" y="2219" width="30" height="30" as="geometry" />
        </mxCell>
        <mxCell id="xFAXYU-9wEt1Gt8IzHtF-229" value="1" style="whiteSpace=wrap;html=1;aspect=fixed;" vertex="1" parent="1">
          <mxGeometry x="695" y="2219" width="30" height="30" as="geometry" />
        </mxCell>
        <mxCell id="xFAXYU-9wEt1Gt8IzHtF-231" value="0" style="whiteSpace=wrap;html=1;aspect=fixed;" vertex="1" parent="1">
          <mxGeometry x="665" y="2219" width="30" height="30" as="geometry" />
        </mxCell>
        <mxCell id="xFAXYU-9wEt1Gt8IzHtF-232" value="0" style="whiteSpace=wrap;html=1;aspect=fixed;" vertex="1" parent="1">
          <mxGeometry x="240" y="1550" width="30" height="30" as="geometry" />
        </mxCell>
        <mxCell id="xFAXYU-9wEt1Gt8IzHtF-233" value="1" style="whiteSpace=wrap;html=1;aspect=fixed;" vertex="1" parent="1">
          <mxGeometry x="270" y="1550" width="30" height="30" as="geometry" />
        </mxCell>
        <mxCell id="xFAXYU-9wEt1Gt8IzHtF-234" value="1" style="whiteSpace=wrap;html=1;aspect=fixed;" vertex="1" parent="1">
          <mxGeometry x="300" y="1550" width="30" height="30" as="geometry" />
        </mxCell>
        <mxCell id="xFAXYU-9wEt1Gt8IzHtF-235" value="0" style="whiteSpace=wrap;html=1;aspect=fixed;" vertex="1" parent="1">
          <mxGeometry x="330" y="1550" width="30" height="30" as="geometry" />
        </mxCell>
        <mxCell id="xFAXYU-9wEt1Gt8IzHtF-236" value="0" style="whiteSpace=wrap;html=1;aspect=fixed;" vertex="1" parent="1">
          <mxGeometry x="360" y="1550" width="30" height="30" as="geometry" />
        </mxCell>
        <mxCell id="xFAXYU-9wEt1Gt8IzHtF-237" value="1" style="whiteSpace=wrap;html=1;aspect=fixed;" vertex="1" parent="1">
          <mxGeometry x="390" y="1550" width="30" height="30" as="geometry" />
        </mxCell>
        <mxCell id="xFAXYU-9wEt1Gt8IzHtF-238" value="1" style="whiteSpace=wrap;html=1;aspect=fixed;" vertex="1" parent="1">
          <mxGeometry x="420" y="1550" width="30" height="30" as="geometry" />
        </mxCell>
        <mxCell id="xFAXYU-9wEt1Gt8IzHtF-239" value="0" style="whiteSpace=wrap;html=1;aspect=fixed;" vertex="1" parent="1">
          <mxGeometry x="450" y="1550" width="30" height="30" as="geometry" />
        </mxCell>
        <mxCell id="xFAXYU-9wEt1Gt8IzHtF-240" value="0" style="whiteSpace=wrap;html=1;aspect=fixed;" vertex="1" parent="1">
          <mxGeometry x="480" y="1550" width="30" height="30" as="geometry" />
        </mxCell>
        <mxCell id="xFAXYU-9wEt1Gt8IzHtF-241" value="1" style="whiteSpace=wrap;html=1;aspect=fixed;" vertex="1" parent="1">
          <mxGeometry x="510" y="1550" width="30" height="30" as="geometry" />
        </mxCell>
        <mxCell id="xFAXYU-9wEt1Gt8IzHtF-242" value="1" style="whiteSpace=wrap;html=1;aspect=fixed;" vertex="1" parent="1">
          <mxGeometry x="540" y="1550" width="30" height="30" as="geometry" />
        </mxCell>
        <mxCell id="xFAXYU-9wEt1Gt8IzHtF-243" value="0" style="whiteSpace=wrap;html=1;aspect=fixed;" vertex="1" parent="1">
          <mxGeometry x="570" y="1550" width="30" height="30" as="geometry" />
        </mxCell>
        <mxCell id="xFAXYU-9wEt1Gt8IzHtF-244" value="0" style="whiteSpace=wrap;html=1;aspect=fixed;" vertex="1" parent="1">
          <mxGeometry x="600" y="1550" width="30" height="30" as="geometry" />
        </mxCell>
        <mxCell id="xFAXYU-9wEt1Gt8IzHtF-245" value="0" style="whiteSpace=wrap;html=1;aspect=fixed;" vertex="1" parent="1">
          <mxGeometry x="630" y="1550" width="30" height="30" as="geometry" />
        </mxCell>
        <mxCell id="xFAXYU-9wEt1Gt8IzHtF-246" value="0" style="whiteSpace=wrap;html=1;aspect=fixed;" vertex="1" parent="1">
          <mxGeometry x="660" y="1550" width="30" height="30" as="geometry" />
        </mxCell>
        <mxCell id="xFAXYU-9wEt1Gt8IzHtF-247" value="0" style="whiteSpace=wrap;html=1;aspect=fixed;" vertex="1" parent="1">
          <mxGeometry x="690" y="1550" width="30" height="30" as="geometry" />
        </mxCell>
        <mxCell id="xFAXYU-9wEt1Gt8IzHtF-248" value="0" style="whiteSpace=wrap;html=1;aspect=fixed;" vertex="1" parent="1">
          <mxGeometry x="240" y="1580" width="30" height="30" as="geometry" />
        </mxCell>
        <mxCell id="xFAXYU-9wEt1Gt8IzHtF-249" value="1" style="whiteSpace=wrap;html=1;aspect=fixed;" vertex="1" parent="1">
          <mxGeometry x="270" y="1580" width="30" height="30" as="geometry" />
        </mxCell>
        <mxCell id="xFAXYU-9wEt1Gt8IzHtF-250" value="0" style="whiteSpace=wrap;html=1;aspect=fixed;" vertex="1" parent="1">
          <mxGeometry x="300" y="1580" width="30" height="30" as="geometry" />
        </mxCell>
        <mxCell id="xFAXYU-9wEt1Gt8IzHtF-251" value="1" style="whiteSpace=wrap;html=1;aspect=fixed;" vertex="1" parent="1">
          <mxGeometry x="330" y="1580" width="30" height="30" as="geometry" />
        </mxCell>
        <mxCell id="xFAXYU-9wEt1Gt8IzHtF-252" value="0" style="whiteSpace=wrap;html=1;aspect=fixed;" vertex="1" parent="1">
          <mxGeometry x="360" y="1580" width="30" height="30" as="geometry" />
        </mxCell>
        <mxCell id="xFAXYU-9wEt1Gt8IzHtF-253" value="1" style="whiteSpace=wrap;html=1;aspect=fixed;" vertex="1" parent="1">
          <mxGeometry x="390" y="1580" width="30" height="30" as="geometry" />
        </mxCell>
        <mxCell id="xFAXYU-9wEt1Gt8IzHtF-254" value="0" style="whiteSpace=wrap;html=1;aspect=fixed;" vertex="1" parent="1">
          <mxGeometry x="420" y="1580" width="30" height="30" as="geometry" />
        </mxCell>
        <mxCell id="xFAXYU-9wEt1Gt8IzHtF-255" value="1" style="whiteSpace=wrap;html=1;aspect=fixed;" vertex="1" parent="1">
          <mxGeometry x="450" y="1580" width="30" height="30" as="geometry" />
        </mxCell>
        <mxCell id="xFAXYU-9wEt1Gt8IzHtF-256" value="0" style="whiteSpace=wrap;html=1;aspect=fixed;" vertex="1" parent="1">
          <mxGeometry x="480" y="1580" width="30" height="30" as="geometry" />
        </mxCell>
        <mxCell id="xFAXYU-9wEt1Gt8IzHtF-257" value="1" style="whiteSpace=wrap;html=1;aspect=fixed;" vertex="1" parent="1">
          <mxGeometry x="510" y="1580" width="30" height="30" as="geometry" />
        </mxCell>
        <mxCell id="xFAXYU-9wEt1Gt8IzHtF-258" value="0" style="whiteSpace=wrap;html=1;aspect=fixed;" vertex="1" parent="1">
          <mxGeometry x="540" y="1580" width="30" height="30" as="geometry" />
        </mxCell>
        <mxCell id="xFAXYU-9wEt1Gt8IzHtF-259" value="1" style="whiteSpace=wrap;html=1;aspect=fixed;" vertex="1" parent="1">
          <mxGeometry x="570" y="1580" width="30" height="30" as="geometry" />
        </mxCell>
        <mxCell id="xFAXYU-9wEt1Gt8IzHtF-260" value="0" style="whiteSpace=wrap;html=1;aspect=fixed;" vertex="1" parent="1">
          <mxGeometry x="600" y="1580" width="30" height="30" as="geometry" />
        </mxCell>
        <mxCell id="xFAXYU-9wEt1Gt8IzHtF-261" value="1" style="whiteSpace=wrap;html=1;aspect=fixed;" vertex="1" parent="1">
          <mxGeometry x="630" y="1580" width="30" height="30" as="geometry" />
        </mxCell>
        <mxCell id="xFAXYU-9wEt1Gt8IzHtF-262" value="0" style="whiteSpace=wrap;html=1;aspect=fixed;" vertex="1" parent="1">
          <mxGeometry x="660" y="1580" width="30" height="30" as="geometry" />
        </mxCell>
        <mxCell id="xFAXYU-9wEt1Gt8IzHtF-263" value="1" style="whiteSpace=wrap;html=1;aspect=fixed;" vertex="1" parent="1">
          <mxGeometry x="690" y="1580" width="30" height="30" as="geometry" />
        </mxCell>
        <mxCell id="xFAXYU-9wEt1Gt8IzHtF-264" value="1" style="whiteSpace=wrap;html=1;aspect=fixed;" vertex="1" parent="1">
          <mxGeometry x="240" y="1610" width="30" height="30" as="geometry" />
        </mxCell>
        <mxCell id="xFAXYU-9wEt1Gt8IzHtF-265" value="0" style="whiteSpace=wrap;html=1;aspect=fixed;" vertex="1" parent="1">
          <mxGeometry x="270" y="1610" width="30" height="30" as="geometry" />
        </mxCell>
        <mxCell id="xFAXYU-9wEt1Gt8IzHtF-266" value="1" style="whiteSpace=wrap;html=1;aspect=fixed;" vertex="1" parent="1">
          <mxGeometry x="300" y="1610" width="30" height="30" as="geometry" />
        </mxCell>
        <mxCell id="xFAXYU-9wEt1Gt8IzHtF-267" value="1" style="whiteSpace=wrap;html=1;aspect=fixed;" vertex="1" parent="1">
          <mxGeometry x="330" y="1610" width="30" height="30" as="geometry" />
        </mxCell>
        <mxCell id="xFAXYU-9wEt1Gt8IzHtF-268" value="1" style="whiteSpace=wrap;html=1;aspect=fixed;" vertex="1" parent="1">
          <mxGeometry x="360" y="1610" width="30" height="30" as="geometry" />
        </mxCell>
        <mxCell id="xFAXYU-9wEt1Gt8IzHtF-269" value="0" style="whiteSpace=wrap;html=1;aspect=fixed;" vertex="1" parent="1">
          <mxGeometry x="390" y="1610" width="30" height="30" as="geometry" />
        </mxCell>
        <mxCell id="xFAXYU-9wEt1Gt8IzHtF-270" value="1" style="whiteSpace=wrap;html=1;aspect=fixed;" vertex="1" parent="1">
          <mxGeometry x="420" y="1610" width="30" height="30" as="geometry" />
        </mxCell>
        <mxCell id="xFAXYU-9wEt1Gt8IzHtF-271" value="1" style="whiteSpace=wrap;html=1;aspect=fixed;" vertex="1" parent="1">
          <mxGeometry x="450" y="1610" width="30" height="30" as="geometry" />
        </mxCell>
        <mxCell id="xFAXYU-9wEt1Gt8IzHtF-272" value="1" style="whiteSpace=wrap;html=1;aspect=fixed;" vertex="1" parent="1">
          <mxGeometry x="480" y="1610" width="30" height="30" as="geometry" />
        </mxCell>
        <mxCell id="xFAXYU-9wEt1Gt8IzHtF-273" value="0" style="whiteSpace=wrap;html=1;aspect=fixed;" vertex="1" parent="1">
          <mxGeometry x="510" y="1610" width="30" height="30" as="geometry" />
        </mxCell>
        <mxCell id="xFAXYU-9wEt1Gt8IzHtF-274" value="1" style="whiteSpace=wrap;html=1;aspect=fixed;" vertex="1" parent="1">
          <mxGeometry x="540" y="1610" width="30" height="30" as="geometry" />
        </mxCell>
        <mxCell id="xFAXYU-9wEt1Gt8IzHtF-275" value="1" style="whiteSpace=wrap;html=1;aspect=fixed;" vertex="1" parent="1">
          <mxGeometry x="570" y="1610" width="30" height="30" as="geometry" />
        </mxCell>
        <mxCell id="xFAXYU-9wEt1Gt8IzHtF-276" value="0" style="whiteSpace=wrap;html=1;aspect=fixed;" vertex="1" parent="1">
          <mxGeometry x="600" y="1610" width="30" height="30" as="geometry" />
        </mxCell>
        <mxCell id="xFAXYU-9wEt1Gt8IzHtF-277" value="1" style="whiteSpace=wrap;html=1;aspect=fixed;" vertex="1" parent="1">
          <mxGeometry x="630" y="1610" width="30" height="30" as="geometry" />
        </mxCell>
        <mxCell id="xFAXYU-9wEt1Gt8IzHtF-278" value="0" style="whiteSpace=wrap;html=1;aspect=fixed;" vertex="1" parent="1">
          <mxGeometry x="660" y="1610" width="30" height="30" as="geometry" />
        </mxCell>
        <mxCell id="xFAXYU-9wEt1Gt8IzHtF-279" value="1" style="whiteSpace=wrap;html=1;aspect=fixed;" vertex="1" parent="1">
          <mxGeometry x="690" y="1610" width="30" height="30" as="geometry" />
        </mxCell>
        <mxCell id="xFAXYU-9wEt1Gt8IzHtF-280" value="data1" style="text;html=1;align=center;verticalAlign=middle;resizable=0;points=[];autosize=1;strokeColor=none;fillColor=none;" vertex="1" parent="1">
          <mxGeometry x="740" y="1550" width="50" height="30" as="geometry" />
        </mxCell>
        <mxCell id="xFAXYU-9wEt1Gt8IzHtF-283" value="data1" style="text;html=1;align=center;verticalAlign=middle;resizable=0;points=[];autosize=1;strokeColor=none;fillColor=none;" vertex="1" parent="1">
          <mxGeometry x="740" y="1580" width="50" height="30" as="geometry" />
        </mxCell>
        <mxCell id="xFAXYU-9wEt1Gt8IzHtF-284" value="data3" style="text;html=1;align=center;verticalAlign=middle;resizable=0;points=[];autosize=1;strokeColor=none;fillColor=none;" vertex="1" parent="1">
          <mxGeometry x="740" y="1610" width="50" height="30" as="geometry" />
        </mxCell>
        <mxCell id="xFAXYU-9wEt1Gt8IzHtF-287" value="&lt;font style=&quot;font-size: 16px;&quot;&gt;UDP&amp;nbsp;&lt;/font&gt;CHECKSUM" style="text;html=1;strokeColor=none;fillColor=none;align=center;verticalAlign=middle;whiteSpace=wrap;rounded=0;fontFamily=Comic Sans MS;" vertex="1" parent="1">
          <mxGeometry x="445" y="2290" width="130" height="20" as="geometry" />
        </mxCell>
        <mxCell id="xFAXYU-9wEt1Gt8IzHtF-288" value="1" style="whiteSpace=wrap;html=1;aspect=fixed;labelBackgroundColor=none;fillColor=#dae8fc;strokeColor=#6c8ebf;" vertex="1" parent="1">
          <mxGeometry x="215" y="2040" width="30" height="30" as="geometry" />
        </mxCell>
        <mxCell id="xFAXYU-9wEt1Gt8IzHtF-290" value="" style="edgeStyle=elbowEdgeStyle;elbow=vertical;endArrow=classic;html=1;curved=0;rounded=0;endSize=8;startSize=8;exitX=0.5;exitY=1;exitDx=0;exitDy=0;entryX=0;entryY=0.5;entryDx=0;entryDy=0;" edge="1" parent="1" source="xFAXYU-9wEt1Gt8IzHtF-288" target="xFAXYU-9wEt1Gt8IzHtF-140">
          <mxGeometry width="50" height="50" relative="1" as="geometry">
            <mxPoint x="400" y="2180" as="sourcePoint" />
            <mxPoint x="690" y="2095" as="targetPoint" />
            <Array as="points">
              <mxPoint x="460" y="2095" />
            </Array>
          </mxGeometry>
        </mxCell>
      </root>
    </mxGraphModel>
  </diagram>
</mxfile>
